<svg id="Layer_1" data-name="Layer 1" xmlns="http://www.w3.org/2000/svg" viewBox="0 0 100 75"><defs><style>.cls-1{fill:#fff;}</style></defs><title>Artboard 1 copy</title><g id="Layer_2" data-name="Layer 2"><g id="Layer_16_copy" data-name="Layer 16 copy"><path class="cls-1" d="M30.49,19.92c-.58.09-.87.41-.87.62a.17.17,0,0,0,0,.1A3.56,3.56,0,0,1,30.49,19.92Z"/><path class="cls-1" d="M41.53,23c0-.19,0-.33-.18-.33s-.69.81-1,1.41A1.25,1.25,0,0,0,41.53,23Z"/><path class="cls-1" d="M30.06,21a1.31,1.31,0,0,0,.39.05c.37,0,1.23-.34,1.23-.77a.26.26,0,0,0-.26-.26h0C31.05,20,30.34,20.66,30.06,21Z"/><path class="cls-1" d="M80.33,32.39a2.55,2.55,0,0,0-.51-.79L74.26,26a2.45,2.45,0,0,0-1.75-.74H53.07a2.11,2.11,0,0,0-1.17.35,2.08,2.08,0,0,0-1.16-.35H43.07a1.48,1.48,0,0,0-.42,0,3.31,3.31,0,0,0,.9-2.1,2.43,2.43,0,0,0-2.22-2.61H41a1.68,1.68,0,0,0-.92-.27h-.62l-.2.17a2.48,2.48,0,0,0-.85-.17H37.7a7.53,7.53,0,0,0-.83.11,2,2,0,0,0-1.33-.55,1.77,1.77,0,0,0-1.35.71,2.72,2.72,0,0,0-.54-.15v-.2a2,2,0,0,0-1.31-2,2.57,2.57,0,0,0-1.47-.42,3.49,3.49,0,0,0-2.49,1.05A9.78,9.78,0,0,0,23.2,17.1H23c-1.72,0-2.35.37-2.77.82h0a2.1,2.1,0,0,0-.72,1.52,1.78,1.78,0,0,0,.52,1.3,1.9,1.9,0,0,0,1.45.55h.13A2.08,2.08,0,0,0,20.7,23a3.25,3.25,0,0,0,1.44,2.34,1.89,1.89,0,0,0-.79.48,2.1,2.1,0,0,0-.62,1.49v8.18a2.48,2.48,0,0,0,.71,1.73l4.26,4.33-4.25,4.33a2.49,2.49,0,0,0-.72,1.74V55.8a2.1,2.1,0,0,0,2.09,2.1h8.06a2.54,2.54,0,0,0,.9-.19,2.42,2.42,0,0,0,.82-.55l4.19-4.3L41,57.14a2.46,2.46,0,0,0,.87.58,2.3,2.3,0,0,0,.9.18h8A2,2,0,0,0,52,57.54a2.12,2.12,0,0,0,1.12.35H72.54a2.66,2.66,0,0,0,.88-.18,2.32,2.32,0,0,0,.83-.55L79.8,51.5a2.48,2.48,0,0,0,.69-1.72V33.33A2.51,2.51,0,0,0,80.33,32.39ZM40,21.9c.12-.09.22.17.13.37a6,6,0,0,0-.56,1.2.54.54,0,0,0,0,.18c.46-.59,1.26-1.49,1.67-1.51.15,0,.62.18.62,1a2,2,0,0,1-1.81,1.74H40c-.08.37-.33,1.22-.48,1.68s-.13.79-.21.82a.9.9,0,0,1-.59-.68,9.92,9.92,0,0,1,.52-2.39,1.35,1.35,0,0,1-.14-.59,2.92,2.92,0,0,1,.95-1.8Zm-3.27,1.36c0-.2.33-.24.36-.31a1.35,1.35,0,0,0,.08-.36c0-.06-.44-.14-.44-.36s.91-.23,1.62-.31c.41,0,.74.35.71.44a.26.26,0,0,1-.22.18,3.92,3.92,0,0,0-1.05.1.37.37,0,0,0-.07.35,3.26,3.26,0,0,0,.7.07.22.22,0,0,1,.12.3.24.24,0,0,1-.18.14h-.84c-.1,0-.2.51-.15.56a9.41,9.41,0,0,0,1.05-.13c.15,0,.36.16.34.3a2.1,2.1,0,0,1-1.45.65c-.48,0-.65-.51-.65-.76a3.68,3.68,0,0,1,.2-.7c-.08,0-.16-.09-.16-.14Zm-2.29-1.12c.34,0,1.19,1.6,1.28,1.58s.08-.17.08-.26c0-.39-.41-1.42-.41-1.73,0-.09,0-.18.1-.18.35,0,.95,1.11.95,2,0,.4-.24,1.05-.65,1.05s-1-1.43-1.19-1.43,0,1.56-.36,1.56-.35-.26-.35-.64S34.12,22.12,34.48,22.14Zm-1.81-.24c.4,0,1.11,0,1.11.27,0,.48-2.28.22-2.29.57,0,.11.49.13.95.17s1.32.15,1.33.9c0,.31-.26.92-1.31.92s-1.41-.54-1.41-.77c0-.45.43-.58.72-.58s1.2.12,1.2.35-.24.25-.51.25-.68-.25-.87-.25a.25.25,0,0,0-.28.21c0,.07,0,.23.53.23.25,0,1.48-.14,1.48-.49,0-.15-.56-.3-1-.35s-1.42.08-1.42-.51c0-.88,1.53-.91,1.82-.91Zm-1.8-2.54a1,1,0,0,1,.7.32.44.44,0,0,1,.5.48c0,.63-1,1.4-1.71,1.4a1.59,1.59,0,0,1-.53-.08.27.27,0,0,1-.25.17c-.12,0-.2-.09-.21-.46a.85.85,0,0,1-.2-.55A1.7,1.7,0,0,1,30.87,19.36Zm-.58,5.42c-.26,0-.42-.12-.4-1.14,0-.45,0-1.66.32-1.68s.34.32.37,1.93c0,.85,0,.89-.28.89Zm-8.57-5.25c0,.09-.11.1-.25.1s-.34,0-.34-.2h0c0-.19.16-.31.29-.45A3.32,3.32,0,0,1,23,18.69c3-.08,6.54,2.45,6.54,4.2,0,1.31-1.42,2.27-3.15,2.27a4.58,4.58,0,0,1-1.28-.09.35.35,0,0,1-.35.39c-.26,0-.42-.28-.44-.67-1.22-.55-2-1.4-2-1.78s.94-.86,2-1.05c0-.5.09-1.41.33-1.41s.37.83.39,1.35h.08c1.88,0,2.45.55,2.45,1.05a.71.71,0,0,1-.43.58c-.19,0-.42,0-.42-.1s.24-.23.24-.37-.92-.42-1.62-.42h-.29v1.88a4.47,4.47,0,0,0,1,.1c.95,0,2.66-.31,2.65-1.64.05-1.69-3.26-3.78-6.14-3.78-.33,0-1,0-1,.15s.22.13.22.23ZM51.23,35.48a.81.81,0,0,1-.25.6l-5.06,5.14a.46.46,0,0,0,0,.65L51,47a.77.77,0,0,1,.19.28.85.85,0,0,1,.06.31v8.18a.46.46,0,0,1-.45.46h-8a.94.94,0,0,1-.3-.07.67.67,0,0,1-.28-.19l-5.06-5.16a.45.45,0,0,0-.63,0h0L31.41,56a.74.74,0,0,1-.27.19,1.16,1.16,0,0,1-.31.07h-8a.46.46,0,0,1-.45-.46h0V47.63a.87.87,0,0,1,.24-.59l5.07-5.16a.46.46,0,0,0,0-.65L22.6,36.08a.84.84,0,0,1-.18-.28.88.88,0,0,1-.07-.32V27.3a.42.42,0,0,1,.13-.32.42.42,0,0,1,.31-.13H30.5a.73.73,0,0,1,.3.06.92.92,0,0,1,.28.19l5.38,5.48a.44.44,0,0,0,.62,0h0l5.38-5.48a.88.88,0,0,1,.27-.19.77.77,0,0,1,.3-.06h7.72a.44.44,0,0,1,.32.13.46.46,0,0,1,.13.32ZM78.85,49.77a.88.88,0,0,1-.06.33,1,1,0,0,1-.17.27L73.09,56a.67.67,0,0,1-.28.19.77.77,0,0,1-.3.06H53.07a.44.44,0,0,1-.45-.45V27.3a.46.46,0,0,1,.13-.32.44.44,0,0,1,.32-.13H72.51a.77.77,0,0,1,.3.06.92.92,0,0,1,.28.19l5.53,5.63a1,1,0,0,1,.17.28.87.87,0,0,1,.06.32Z"/><path class="cls-1" d="M22.57,23.12c0,.2.72.8,1.75,1.16V22.65C23.5,22.7,22.57,22.81,22.57,23.12Z"/></g></g></svg>