<?xml version="1.0" encoding="utf-8"?>
<!-- Generator: Adobe Illustrator 26.4.1, SVG Export Plug-In . SVG Version: 6.00 Build 0)  -->
<svg version="1.1" id="Layer_1" xmlns="http://www.w3.org/2000/svg" xmlns:xlink="http://www.w3.org/1999/xlink" x="0px" y="0px"
	 viewBox="0 0 515.1 570.6" style="enable-background:new 0 0 515.1 570.6;" xml:space="preserve">
<style type="text/css">
	.st0{fill:#FFFFFF;}
</style>
<g>
	<path class="st0" d="M65.2,264.3c-0.5-3.7-3.5-10-12.8-10c-6.4,0-10.6,4.1-10.6,8.5c0,3.8,2.3,6.6,7.6,7.6l10.3,2
		C74.4,275.3,82,285,82,296.3c0,12.4-10.1,25.1-28.5,25.1c-21.3,0-30.5-14.2-31.6-25.4l15.8-3.9c0.7,7.3,5.4,13.7,16,13.7
		c6.7,0,10.9-3.4,10.9-8.3c0-4-3.2-6.9-8.3-7.9l-10.6-2c-13.1-2.6-21-11.5-21-23.3c0-15,12.8-25.5,27.6-25.5
		c19.3,0,26.5,11.9,28.2,21.1L65.2,264.3z"/>
	<path class="st0" d="M124.5,257.3v62.4h-17.2v-62.4H83.6v-16.9h64.7v16.9H124.5z"/>
	<path class="st0" d="M312.7,288.5l-8.7,10v21.3h-17.2v-79.3H304v33.3l28.2-33.3l22.6-0.1l-30,34.4l30.1,45h-21.4L312.7,288.5z"/>
	<path class="st0" d="M261.6,288.8c-1.5,5.7-6.9,14.9-20.2,14.9c-11.5,0-22.2-8.6-22.2-23.5c0-16.7,11.6-24.3,22-24.3
		c13.6,0,18.5,9.3,19.7,14.8l16.2-5.3c-2.5-11.4-12.7-26.7-35.9-26.7c-16.5,0-31.1,9.9-37,25.6l19.2,53c5.4,2.6,11.5,4,18,4
		c23.9,0,34.2-16.8,36.7-27.7L261.6,288.8z"/>
	<path class="st0" d="M187.3,303.6h-29.8l-5.5,16.1h-18.1l29-79.3h19.9l28.7,79.3h-18.7L187.3,303.6z M163.1,287.5h18.7l-9.2-27.4
		L163.1,287.5z"/>
	<polygon class="st0" points="359.1,240.3 359.1,257.3 382.8,257.3 382.8,319.7 400,319.7 400,257.3 417.2,257.3 439.8,319.5 
		449.9,319.5 450.1,319.5 460.2,319.5 489,240.2 470.2,240.2 450,299.3 429.7,240.3 	"/>
</g>
</svg>
